<mxfile host="app.diagrams.net" modified="2021-05-21T14:52:10.089Z" agent="5.0 (Macintosh; Intel Mac OS X 10_15_7) AppleWebKit/537.36 (KHTML, like Gecko) Chrome/90.0.4430.212 Safari/537.36" etag="_chLUTTmSH9zNptsNhf9" version="14.7.0" type="github">
  <diagram id="_Dv1Jtu-dpwxcI9XdsrK" name="Page-1">
    <mxGraphModel dx="1157" dy="691" grid="1" gridSize="10" guides="1" tooltips="1" connect="1" arrows="1" fold="1" page="1" pageScale="1" pageWidth="1169" pageHeight="827" math="0" shadow="0">
      <root>
        <mxCell id="0" />
        <mxCell id="1" parent="0" />
        <mxCell id="a7ZfEyOf-QrD211ttYLm-1" value="" style="shape=image;imageAspect=0;aspect=fixed;verticalLabelPosition=bottom;verticalAlign=top;image=https://upload.wikimedia.org/wikipedia/commons/thumb/c/c9/Power_bi_logo_black.svg/1200px-Power_bi_logo_black.svg.png;" vertex="1" parent="1">
          <mxGeometry x="540" y="310" width="88" height="88" as="geometry" />
        </mxCell>
        <mxCell id="a7ZfEyOf-QrD211ttYLm-4" style="edgeStyle=orthogonalEdgeStyle;rounded=0;orthogonalLoop=1;jettySize=auto;html=1;entryX=0;entryY=0.5;entryDx=0;entryDy=0;" edge="1" parent="1" source="a7ZfEyOf-QrD211ttYLm-2" target="a7ZfEyOf-QrD211ttYLm-3">
          <mxGeometry relative="1" as="geometry" />
        </mxCell>
        <mxCell id="a7ZfEyOf-QrD211ttYLm-5" style="edgeStyle=orthogonalEdgeStyle;rounded=0;orthogonalLoop=1;jettySize=auto;html=1;entryX=0;entryY=0.5;entryDx=0;entryDy=0;" edge="1" parent="1" source="a7ZfEyOf-QrD211ttYLm-2" target="a7ZfEyOf-QrD211ttYLm-1">
          <mxGeometry relative="1" as="geometry" />
        </mxCell>
        <mxCell id="a7ZfEyOf-QrD211ttYLm-2" value="" style="verticalLabelPosition=bottom;html=1;verticalAlign=top;align=center;strokeColor=none;fillColor=#00BEF2;shape=mxgraph.azure.azure_subscription;" vertex="1" parent="1">
          <mxGeometry x="370" y="190" width="50" height="35" as="geometry" />
        </mxCell>
        <mxCell id="a7ZfEyOf-QrD211ttYLm-3" value="" style="shape=image;imageAspect=0;aspect=fixed;verticalLabelPosition=bottom;verticalAlign=top;image=https://upload.wikimedia.org/wikipedia/commons/thumb/d/de/AirflowLogo.png/1200px-AirflowLogo.png;" vertex="1" parent="1">
          <mxGeometry x="570" y="172.5" width="181.1" height="70" as="geometry" />
        </mxCell>
        <mxCell id="a7ZfEyOf-QrD211ttYLm-6" value="&lt;font style=&quot;font-size: 25px&quot;&gt;TESTING INTEGRATION ONLY&lt;/font&gt;" style="text;html=1;resizable=0;autosize=1;align=center;verticalAlign=middle;points=[];fillColor=none;strokeColor=none;rounded=0;" vertex="1" parent="1">
          <mxGeometry x="350" y="120" width="370" height="20" as="geometry" />
        </mxCell>
      </root>
    </mxGraphModel>
  </diagram>
</mxfile>
